<?xml version="1.0" encoding="UTF-8"?>
<svg xmlns="http://www.w3.org/2000/svg" xmlns:xlink="http://www.w3.org/1999/xlink" width="1920" height="1080" viewBox="0 0 1920 1080">
<defs>
<g>
<g id="glyph-0-0">
<path d="M 0.390625 -6.648438 L 4.363281 -6.648438 C 4.578125 -6.996094 4.777344 -7.351562 4.953125 -7.714844 L 1.25 -7.714844 L 1.25 -8.546875 L 5.332031 -8.546875 C 5.476562 -8.886719 5.601562 -9.230469 5.714844 -9.582031 C 4.175781 -9.53125 2.671875 -9.488281 1.210938 -9.460938 C 1.160156 -9.738281 1.097656 -10.03125 1.027344 -10.34375 C 5.167969 -10.40625 8.820312 -10.535156 11.980469 -10.734375 L 12.136719 -9.851562 C 10.3125 -9.761719 8.539062 -9.6875 6.808594 -9.621094 C 6.691406 -9.261719 6.5625 -8.902344 6.417969 -8.546875 L 12.082031 -8.546875 L 12.082031 -7.714844 L 6.046875 -7.714844 C 5.875 -7.355469 5.6875 -7 5.488281 -6.648438 L 13.074219 -6.648438 L 13.074219 -5.8125 L 4.96875 -5.8125 C 4.75 -5.484375 4.519531 -5.160156 4.269531 -4.835938 L 11.457031 -4.835938 L 11.457031 1.699219 L 10.519531 1.699219 L 10.519531 1.191406 L 3.996094 1.191406 L 3.996094 1.699219 L 3.058594 1.699219 L 3.058594 -3.40625 C 2.378906 -2.679688 1.617188 -1.980469 0.78125 -1.308594 C 0.609375 -1.578125 0.398438 -1.871094 0.15625 -2.195312 C 1.636719 -3.269531 2.855469 -4.476562 3.808594 -5.8125 L 0.390625 -5.8125 L 0.390625 -6.648438 M 3.996094 0.359375 L 10.519531 0.359375 L 10.519531 -0.566406 L 3.996094 -0.566406 L 3.996094 0.359375 M 10.519531 -4.003906 L 3.996094 -4.003906 L 3.996094 -3.09375 L 10.519531 -3.09375 L 10.519531 -4.003906 M 3.996094 -1.375 L 10.519531 -1.375 L 10.519531 -2.285156 L 3.996094 -2.285156 Z "/>
</g>
<g id="glyph-0-1">
<path d="M 10.703125 -10.683594 L 11.746094 -10.683594 C 11.746094 -7.941406 11.648438 -5.890625 11.457031 -4.539062 C 11.339844 -3.675781 11.121094 -2.875 10.792969 -2.136719 C 11.710938 -1.046875 12.5 -0.0898438 13.164062 0.734375 L 12.226562 1.464844 C 11.671875 0.621094 11.035156 -0.269531 10.320312 -1.210938 C 9.617188 -0.0351562 8.605469 0.957031 7.292969 1.765625 C 7.066406 1.496094 6.796875 1.207031 6.484375 0.90625 C 8.734375 -0.292969 10.050781 -2.160156 10.441406 -4.695312 C 10.617188 -5.789062 10.703125 -7.785156 10.703125 -10.683594 M 0.167969 -4.746094 C 1.339844 -6.734375 2.148438 -8.84375 2.589844 -11.074219 L 3.554688 -10.867188 C 3.335938 -9.933594 3.078125 -9.03125 2.773438 -8.15625 L 2.773438 1.726562 L 1.757812 1.726562 L 1.757812 -5.722656 C 1.410156 -5.007812 1.027344 -4.3125 0.613281 -3.640625 C 0.472656 -4.011719 0.324219 -4.382812 0.167969 -4.746094 M 8.671875 -3.964844 C 8.707031 -3.453125 8.742188 -3.042969 8.777344 -2.742188 C 7.796875 -2.117188 6.667969 -1.363281 5.390625 -0.488281 C 5.15625 -0.316406 4.929688 -0.132812 4.714844 0.0585938 L 3.984375 -0.828125 C 4.296875 -1.105469 4.453125 -1.5 4.453125 -2.011719 L 4.453125 -9.65625 L 5.46875 -9.65625 L 5.46875 -1.855469 C 6.390625 -2.445312 7.457031 -3.148438 8.671875 -3.964844 M 6.589844 -10.527344 L 7.488281 -10.996094 C 8.207031 -9.738281 8.816406 -8.628906 9.308594 -7.675781 L 8.28125 -7.140625 C 7.691406 -8.425781 7.125 -9.554688 6.589844 -10.527344 Z "/>
</g>
<g id="glyph-0-2">
<path d="M 0.167969 -7.414062 C 1.410156 -8.386719 2.4375 -9.628906 3.253906 -11.140625 L 4.402344 -11.140625 C 4.191406 -10.773438 3.976562 -10.421875 3.757812 -10.085938 L 12.917969 -10.085938 L 12.917969 -9.25 L 3.175781 -9.25 C 2.941406 -8.929688 2.699219 -8.621094 2.449219 -8.328125 L 11.613281 -8.328125 L 11.613281 -3.535156 L 10.703125 -3.535156 L 10.703125 -3.875 L 3.046875 -3.875 L 3.046875 -3.40625 L 2.148438 -3.40625 L 2.148438 -7.976562 C 1.710938 -7.484375 1.25 -7.023438 0.769531 -6.59375 C 0.621094 -6.847656 0.421875 -7.121094 0.167969 -7.414062 M 0.167969 -0.605469 C 1.765625 -1.386719 3.050781 -2.371094 4.023438 -3.5625 L 5.183594 -3.5625 C 4.992188 -3.316406 4.796875 -3.082031 4.597656 -2.859375 L 11.640625 -2.859375 L 11.640625 -2.15625 C 10.796875 -1.402344 9.722656 -0.734375 8.410156 -0.144531 C 9.769531 0.210938 11.355469 0.457031 13.164062 0.59375 C 12.929688 0.984375 12.726562 1.339844 12.550781 1.660156 C 10.4375 1.363281 8.625 0.933594 7.117188 0.363281 C 5.570312 0.902344 3.703125 1.386719 1.511719 1.816406 C 1.34375 1.53125 1.144531 1.234375 0.910156 0.929688 C 3.0625 0.574219 4.742188 0.222656 5.949219 -0.125 C 4.972656 -0.59375 4.15625 -1.132812 3.496094 -1.746094 C 2.671875 -1.003906 1.773438 -0.382812 0.808594 0.109375 C 0.617188 -0.140625 0.402344 -0.378906 0.167969 -0.605469 M 3.046875 -4.679688 L 10.703125 -4.679688 L 10.703125 -5.722656 L 3.046875 -5.722656 L 3.046875 -4.679688 M 10.703125 -7.519531 L 3.046875 -7.519531 L 3.046875 -6.492188 L 10.703125 -6.492188 L 10.703125 -7.519531 M 10.144531 -2.101562 L 4.21875 -2.101562 C 4.976562 -1.46875 5.953125 -0.945312 7.140625 -0.527344 C 8.347656 -0.996094 9.347656 -1.519531 10.144531 -2.101562 Z "/>
</g>
<g id="glyph-0-3">
<path d="M 9.855469 -9.695312 L 9.855469 -6.699219 C 9.855469 -6.144531 10.089844 -5.867188 10.558594 -5.867188 L 11.015625 -5.867188 C 11.535156 -5.867188 11.839844 -6.078125 11.925781 -6.503906 C 12.023438 -6.929688 12.097656 -7.472656 12.148438 -8.132812 C 12.582031 -7.941406 12.917969 -7.804688 13.152344 -7.726562 C 13.074219 -7.136719 12.984375 -6.621094 12.890625 -6.179688 C 12.707031 -5.34375 12.105469 -4.929688 11.082031 -4.929688 L 10.417969 -4.929688 C 9.347656 -4.929688 8.816406 -5.488281 8.816406 -6.609375 L 8.816406 -8.757812 L 5.203125 -8.757812 C 4.925781 -6.886719 3.507812 -5.492188 0.949219 -4.578125 C 0.742188 -4.941406 0.535156 -5.253906 0.324219 -5.515625 C 2.5625 -6.21875 3.832031 -7.296875 4.132812 -8.757812 L 0.9375 -8.757812 L 0.9375 -9.695312 L 4.230469 -9.695312 C 4.257812 -10.113281 4.269531 -10.59375 4.269531 -11.125 L 5.3125 -11.125 C 5.3125 -10.59375 5.300781 -10.113281 5.28125 -9.695312 L 9.855469 -9.695312 M 0.324219 -4.09375 L 6.09375 -4.09375 L 6.09375 -5.734375 L 7.160156 -5.734375 L 7.160156 -4.09375 L 12.578125 -4.09375 L 12.578125 -3.15625 L 7.160156 -3.15625 L 7.160156 0.0585938 C 7.160156 1.03125 6.671875 1.515625 5.691406 1.515625 L 3.984375 1.515625 C 3.976562 1.472656 3.910156 1.121094 3.789062 0.460938 C 4.34375 0.515625 4.875 0.539062 5.378906 0.539062 C 5.855469 0.539062 6.09375 0.277344 6.09375 -0.253906 L 6.09375 -3.15625 L 0.324219 -3.15625 L 0.324219 -4.09375 M 8.554688 -1.554688 L 9.207031 -2.363281 C 10.636719 -1.460938 11.847656 -0.644531 12.839844 0.0859375 L 12.121094 1.035156 C 10.941406 0.0820312 9.753906 -0.785156 8.554688 -1.554688 M 3.542969 -2.519531 L 4.347656 -1.804688 C 3.238281 -0.753906 2.066406 0.238281 0.832031 1.164062 C 0.625 0.871094 0.394531 0.589844 0.144531 0.320312 C 1.351562 -0.515625 2.484375 -1.460938 3.542969 -2.519531 Z "/>
</g>
<g id="glyph-0-4">
<path d="M 0.234375 0.828125 C 3.4375 0.226562 5.5 -0.722656 6.417969 -2.023438 L 0.441406 -2.023438 L 0.441406 -2.988281 L 6.902344 -2.988281 C 7.195312 -3.890625 7.332031 -5.464844 7.304688 -7.714844 L 8.398438 -7.714844 C 8.398438 -5.484375 8.277344 -3.910156 8.035156 -2.988281 L 12.96875 -2.988281 L 12.96875 -2.023438 L 7.667969 -2.023438 C 7.601562 -1.886719 7.515625 -1.738281 7.421875 -1.582031 C 9.28125 -0.800781 11.097656 0.0078125 12.878906 0.839844 L 12.304688 1.828125 C 10.445312 0.882812 8.609375 0.00390625 6.796875 -0.8125 C 5.617188 0.339844 3.636719 1.230469 0.859375 1.855469 C 0.660156 1.472656 0.453125 1.128906 0.234375 0.828125 M 0.691406 -9.210938 L 6.652344 -9.210938 C 6.4375 -9.601562 6.144531 -10.058594 5.78125 -10.578125 L 6.730469 -11.113281 C 7.019531 -10.730469 7.367188 -10.226562 7.773438 -9.601562 L 7.058594 -9.210938 L 12.628906 -9.210938 L 12.628906 -6.882812 L 11.589844 -6.882812 L 11.589844 -8.25 L 1.730469 -8.25 L 1.730469 -6.882812 L 0.691406 -6.882812 L 0.691406 -9.210938 M 2.292969 -5.695312 C 3.289062 -5.246094 4.226562 -4.773438 5.105469 -4.277344 L 4.542969 -3.378906 C 3.675781 -3.910156 2.761719 -4.402344 1.796875 -4.863281 L 2.292969 -5.695312 M 3.464844 -7.6875 C 4.46875 -7.203125 5.386719 -6.710938 6.210938 -6.21875 L 5.625 -5.332031 C 4.816406 -5.851562 3.929688 -6.382812 2.957031 -6.921875 Z "/>
</g>
<g id="glyph-0-5">
<path d="M 11.289062 -10.839844 L 12.332031 -10.839844 L 12.332031 -0.0195312 C 12.332031 1.039062 11.808594 1.574219 10.769531 1.582031 C 10.289062 1.589844 9.613281 1.585938 8.738281 1.570312 C 8.695312 1.265625 8.625 0.878906 8.527344 0.410156 C 9.414062 0.488281 10.046875 0.527344 10.429688 0.527344 C 11.003906 0.535156 11.289062 0.253906 11.289062 -0.320312 L 11.289062 -10.839844 M 9.621094 -1.660156 L 8.605469 -1.660156 L 8.605469 -9.679688 L 9.621094 -9.679688 L 9.621094 -1.660156 M 1.121094 -10.28125 L 6.914062 -10.28125 L 6.914062 -1.882812 L 5.910156 -1.882812 L 5.910156 -9.355469 L 2.121094 -9.355469 L 2.121094 -1.882812 L 1.121094 -1.882812 L 1.121094 -10.28125 M 6.707031 1.308594 C 5.847656 0.421875 4.914062 -0.464844 3.90625 -1.359375 C 3.324219 -0.0234375 2.28125 1.042969 0.78125 1.84375 C 0.597656 1.574219 0.382812 1.285156 0.128906 0.984375 C 1.859375 0.113281 2.898438 -1.074219 3.253906 -2.585938 C 3.480469 -3.3125 3.589844 -5.253906 3.582031 -8.40625 L 4.582031 -8.40625 C 4.59375 -5.226562 4.476562 -3.195312 4.230469 -2.3125 C 5.265625 -1.503906 6.363281 -0.570312 7.527344 0.488281 Z "/>
</g>
<g id="glyph-0-6">
<path d="M 3.945312 -5.085938 L 9.425781 -5.085938 L 9.425781 -0.214844 L 4.855469 -0.214844 L 4.855469 0.304688 L 3.945312 0.304688 L 3.945312 -5.085938 M 4.792969 -6.269531 L 4.792969 -7.089844 L 12.253906 -7.089844 L 12.253906 0.03125 C 12.253906 1.152344 11.695312 1.710938 10.585938 1.710938 C 10.074219 1.710938 9.546875 1.699219 9.011719 1.671875 C 8.976562 1.421875 8.910156 1.089844 8.816406 0.683594 C 9.441406 0.734375 10.007812 0.761719 10.519531 0.761719 C 11.03125 0.761719 11.289062 0.503906 11.289062 -0.0078125 L 11.289062 -6.269531 L 4.792969 -6.269531 M 2.722656 -11.085938 L 3.816406 -11.085938 C 3.605469 -10.660156 3.386719 -10.253906 3.152344 -9.863281 L 6.847656 -9.863281 L 6.847656 -9.042969 L 2.605469 -9.042969 C 2.082031 -8.3125 1.5 -7.660156 0.859375 -7.078125 C 0.6875 -7.285156 0.460938 -7.519531 0.183594 -7.78125 C 1.25 -8.71875 2.097656 -9.820312 2.722656 -11.085938 M 8.371094 -11.085938 L 9.464844 -11.085938 C 9.265625 -10.660156 9.050781 -10.253906 8.816406 -9.863281 L 12.96875 -9.863281 L 12.96875 -9.042969 L 8.332031 -9.042969 C 7.941406 -8.433594 7.527344 -7.859375 7.082031 -7.3125 C 6.847656 -7.476562 6.566406 -7.660156 6.238281 -7.859375 C 7.0625 -8.785156 7.773438 -9.863281 8.371094 -11.085938 M 1.183594 -5.8125 L 2.148438 -5.8125 L 2.148438 1.738281 L 1.183594 1.738281 L 1.183594 -5.8125 M 4.855469 -0.996094 L 8.515625 -0.996094 L 8.515625 -2.285156 L 4.855469 -2.285156 L 4.855469 -0.996094 M 8.515625 -4.304688 L 4.855469 -4.304688 L 4.855469 -3.039062 L 8.515625 -3.039062 L 8.515625 -4.304688 M 1.914062 -7.257812 L 2.550781 -7.820312 C 3.089844 -7.351562 3.589844 -6.863281 4.050781 -6.359375 L 3.320312 -5.695312 C 2.914062 -6.207031 2.445312 -6.730469 1.914062 -7.257812 M 10.050781 -7.15625 C 9.886719 -7.414062 9.535156 -7.859375 8.996094 -8.484375 L 9.675781 -8.964844 C 10.144531 -8.511719 10.523438 -8.105469 10.820312 -7.742188 L 10.050781 -7.15625 M 4.519531 -7.167969 C 4.207031 -7.601562 3.863281 -8.03125 3.488281 -8.457031 L 4.167969 -8.953125 C 4.558594 -8.585938 4.929688 -8.1875 5.285156 -7.753906 Z "/>
</g>
<g id="glyph-0-7">
<path d="M 0.261719 -1.894531 L 6.160156 -1.894531 L 6.160156 -3.367188 L 2.550781 -3.367188 L 2.550781 -2.753906 L 1.5625 -2.753906 L 1.5625 -9.070312 L 4.265625 -9.070312 C 3.847656 -9.554688 3.398438 -10.054688 2.917969 -10.566406 L 3.660156 -11.179688 C 4.300781 -10.5625 4.867188 -9.992188 5.351562 -9.472656 L 4.871094 -9.070312 L 7.921875 -9.070312 C 8.402344 -9.703125 8.882812 -10.394531 9.375 -11.140625 L 10.417969 -10.578125 C 9.96875 -10.035156 9.539062 -9.535156 9.121094 -9.070312 L 11.785156 -9.070312 L 11.785156 -2.753906 L 10.792969 -2.753906 L 10.792969 -3.367188 L 7.175781 -3.367188 L 7.175781 -1.894531 L 13.074219 -1.894531 L 13.074219 -0.957031 L 7.175781 -0.957031 L 7.175781 1.789062 L 6.160156 1.789062 L 6.160156 -0.957031 L 0.261719 -0.957031 L 0.261719 -1.894531 M 7.175781 -4.277344 L 10.792969 -4.277344 L 10.792969 -5.789062 L 7.175781 -5.789062 L 7.175781 -4.277344 M 2.550781 -4.277344 L 6.160156 -4.277344 L 6.160156 -5.789062 L 2.550781 -5.789062 L 2.550781 -4.277344 M 10.792969 -8.15625 L 7.175781 -8.15625 L 7.175781 -6.671875 L 10.792969 -6.671875 L 10.792969 -8.15625 M 2.550781 -6.671875 L 6.160156 -6.671875 L 6.160156 -8.15625 L 2.550781 -8.15625 Z "/>
</g>
<g id="glyph-0-8">
<path d="M 3.972656 -10.078125 L 3.828125 -2.863281 L 2.800781 -2.863281 L 2.65625 -10.078125 L 3.972656 -10.078125 M 3.332031 -1.492188 C 3.5625 -1.492188 3.761719 -1.410156 3.925781 -1.25 C 4.089844 -1.089844 4.171875 -0.894531 4.171875 -0.664062 C 4.171875 -0.429688 4.089844 -0.234375 3.925781 -0.0742188 C 3.761719 0.0820312 3.5625 0.164062 3.332031 0.164062 C 3.101562 0.164062 2.90625 0.0820312 2.742188 -0.0742188 C 2.574219 -0.234375 2.492188 -0.429688 2.492188 -0.664062 C 2.492188 -0.894531 2.574219 -1.089844 2.742188 -1.25 C 2.90625 -1.410156 3.101562 -1.492188 3.332031 -1.492188 Z "/>
</g>
</g>
</defs>
<g fill="rgb(61.176471%, 86.27451%, 92.156863%)" fill-opacity="1">
<use xlink:href="#glyph-0-0" x="30" y="34.107422"/>
</g>
<g fill="rgb(63.529412%, 78.823529%, 89.803922%)" fill-opacity="1">
<use xlink:href="#glyph-0-1" x="43" y="34.107422"/>
</g>
<g fill="rgb(66.27451%, 71.372549%, 87.45098%)" fill-opacity="1">
<use xlink:href="#glyph-0-2" x="56" y="34.107422"/>
</g>
<g fill="rgb(68.627451%, 64.313725%, 85.098039%)" fill-opacity="1">
<use xlink:href="#glyph-0-3" x="69" y="34.107422"/>
</g>
<g fill="rgb(71.372549%, 56.862745%, 82.745098%)" fill-opacity="1">
<use xlink:href="#glyph-0-4" x="82" y="34.107422"/>
</g>
<g fill="rgb(74.117647%, 49.411765%, 80.784314%)" fill-opacity="1">
<use xlink:href="#glyph-0-5" x="95" y="34.107422"/>
</g>
<g fill="rgb(76.470588%, 42.352941%, 78.431373%)" fill-opacity="1">
<use xlink:href="#glyph-0-6" x="108" y="34.107422"/>
</g>
<g fill="rgb(79.215686%, 34.901961%, 76.078431%)" fill-opacity="1">
<use xlink:href="#glyph-0-7" x="121" y="34.107422"/>
</g>
<g fill="rgb(81.960784%, 27.843137%, 74.117647%)" fill-opacity="1">
<use xlink:href="#glyph-0-8" x="134" y="34.107422"/>
</g>
</svg>
